<svg viewBox="0 -11 70 70" fill="none" xmlns="http://www.w3.org/2000/svg">
  <g id="SVGRepo_bgCarrier" stroke-width="0"></g>
  <g id="SVGRepo_tracerCarrier" stroke-linecap="round" stroke-linejoin="round"></g>
  <g id="SVGRepo_iconCarrier">
    <rect x="0.5" y="0.5" width="69" height="47" rx="5.5" fill="white" stroke="#D9D9D9"></rect>
    <g transform="translate(35, 24) scale(0.045376) translate(-512.19, -463.22)">
      <path d="M710.596,305.545c0,0-98.506-150.851-312.79-75.426c0,0-115.854,31.905-167.973,217.226   c0,0,107.18,170.839,367.776,115.854C597.608,563.274,820.567,505.348,710.596,305.545z M570.078,456.396   c-43.521,20.591-110.499,15.085-155.905,3.243c-3.243-0.83-62.528-21.723-59.813-26.852   c43.521-80.479,157.413-154.698,236.837-72.107c8.171,7.917,14.148,17.819,17.348,28.737c6.788,27.229-13.199,55.211-38.467,67.129   L570.078,456.396z" fill="#000000"></path>
      <path style="fill:#26B15D;" d="M229.832,502.934c0,0-26.022,202.216,162.165,268.817s335.946-55.061,379.391-130.336   l-107.18-63.659c0,0-83.949,173.479-324.331,60.793C339.878,638.549,252.988,587.335,229.832,502.934z"></path>
    </g>
  </g>
</svg>