<svg viewBox="0 -11 70 70" fill="none" xmlns="http://www.w3.org/2000/svg">
  <g id="SVGRepo_bgCarrier" stroke-width="0"></g>
  <g id="SVGRepo_tracerCarrier" stroke-linecap="round" stroke-linejoin="round"></g>
  <g id="SVGRepo_iconCarrier">
    <rect x="0.5" y="0.5" width="69" height="47" rx="5.5" fill="white" stroke="#D9D9D9"></rect>
    <g transform="translate(35, 24) scale(0.129384) translate(-248.105, -197.535)">
      <path d="M241.86,272.69c-3.49,2.76-6.82,5.74-10.49,8.24-13.66,9.27-29.33,13.39-45.13,16.9a99.87,99.87,0,0,1-59-4.56c-3.5-1.36-7.47-2.88-8-7.13-.54-4.49,3.31-6.69,6.47-8.87,4.46-3.08,9.55-5,14.43-7.23,15.09-7,27.62-17.17,37-31,6.31-9.32,7.9-19.8,7.68-30.84-.32-16.64-.32-33.29-.38-49.94q-.1-27.27-.07-54.54c0-9.67,6.65-14.39,15.72-11a125.55,125.55,0,0,1,38.39,23c.71.61,1.46,1.15,2.2,1.73,4.19,2.12,7.09,5.75,10,9.17,12.87,15.09,21.56,32.3,24.84,52,3.49,21-.06,41-8.82,60.25a120.87,120.87,0,0,1-20.18,30.31C245.2,270.6,244,272.28,241.86,272.69Z" fill="#fec50a"/>
      <path d="M241.86,272.69c9.58-9.93,17.87-20.81,23.57-33.45,17.61-39,13-75.39-13.08-109.19-3.52-4.56-7.86-8.36-11.7-12.62,6.94-4.8,14-9.44,21.28-13.7,11.61-6.77,24.39-9.51,37.51-10.92,15.39-1.66,30.69-1.24,45.64,3.31,10.35,3.15,19.36,8.85,27.89,15.31,4.42,3.36,3.95,5.07-1.16,7.1-30.13,12-49,34-56.08,65.47-4.39,19.56,1.61,37.45,11.57,54.36s25.48,26.88,42.9,34.26c5.45,2.31,7.31,6,1.17,10.36-8,5.68-17.14,9.16-26.52,11.84C306.62,305.74,272.06,299.27,241.86,272.69Z" fill="#ed2327"/>
    </g>
  </g>
</svg>